<svg xmlns="http://www.w3.org/2000/svg" xmlns:xlink="http://www.w3.org/1999/xlink" width="24" height="48"
     viewBox="0 0 24 48">
    <svg width="24" height="24" viewBox="0 0 24 24" id="login_24px" y="0">
        <path d="M10,17.25V14H3V10H10V6.75L15.25,12L10,17.25M8,2H17A2,2 0 0,1 19,4V20A2,2 0 0,1 17,22H8A2,2 0 0,1 6,20V16H8V20H17V4H8V8H6V4A2,2 0 0,1 8,2Z"/>
    </svg>
    <svg width="24" height="24" viewBox="0 0 24 24" id="logout_24px" y="24">
        <path d="M17,17.25V14H10V10H17V6.75L22.25,12L17,17.25M13,2A2,2 0 0,1 15,4V8H13V4H4V20H13V16H15V20A2,2 0 0,1 13,22H4A2,2 0 0,1 2,20V4A2,2 0 0,1 4,2H13Z"/>
    </svg>
</svg>